<svg xmlns="http://www.w3.org/2000/svg" width="218" height="161" viewBox="-0.5 -0.5 218 161"><g fill="#69d" pointer-events="all"><path d="M116.42 151.66c-33.61 17.19-74.67 8.54-98.49-20.76-23.82-29.29-23.92-71.25-.23-100.65C41.38.84 82.4-8 116.09 9.03l-15.52 30.7c-19.2-9.7-42.58-4.66-56.08 12.1-13.5 16.76-13.45 40.67.13 57.37 13.58 16.7 36.98 21.63 56.14 11.83Z"/><path d="m144.438 98.781-39.235-46.76 14.646-26.649 46.307 55.186Z" stroke="#69d" stroke-miterlimit="10"/><path d="m144.438 62.079-39.235 46.76 14.646 26.649 46.307-55.186Zm50.372 36.709-39.235-46.76 14.647-26.65 46.306 55.187Z" stroke="#69d" stroke-miterlimit="10"/><path d="m194.81 62.072-39.235 46.76 14.647 26.65 46.306-55.187Z" stroke="#69d" stroke-miterlimit="10"/></g></svg>
